<svg width="26" height="72" viewBox="0 0 26 72" fill="none" xmlns="http://www.w3.org/2000/svg">
<rect x="2.41504" y="6.41585" width="21.0979" height="2.85148" fill="white"/>
<path d="M23.5129 3.20792C23.5129 4.97961 18.79 6.41584 12.964 6.41584C7.13796 6.41584 2.41504 4.97961 2.41504 3.20792C2.41504 1.43623 7.13796 0 12.964 0C18.79 0 23.5129 1.43623 23.5129 3.20792Z" fill="#6889FB"/>
<path d="M2.41504 3.56436H23.5129V8.55445C15.1687 6.64448 10.5487 6.69349 2.41504 8.55445V3.56436Z" fill="#6889FB"/>
<path d="M23.513 67.7228C23.513 70.085 18.9475 72 13.3157 72C7.68389 72 2.76677 69.7286 2.76677 67.3663C2.76677 65.0041 7.68389 63.4455 13.3157 63.4455C18.9475 63.4455 23.513 65.3605 23.513 67.7228Z" fill="#C4C4C4"/>
<path d="M23.513 67.7228C23.1203 58.6874 22.4581 48.4752 22.1065 44.198C21.7549 39.9208 29.978 17.6935 23.513 8.55444C16.0082 8.07258 11.3419 7.83163 2.41516 8.55444C-4.04983 17.6935 4.55049 39.9208 4.19886 44.198C3.84723 48.4752 3.18506 58.6875 2.79233 67.7228L23.513 67.7228Z" fill="#C4C4C4"/>
<mask id="mask0" mask-type="alpha" maskUnits="userSpaceOnUse" x="0" y="8" width="26" height="64">
<path d="M23.513 67.7228C23.513 70.085 18.9475 72 13.3157 72C7.68389 72 2.76677 69.7286 2.76677 67.3664C2.76677 65.0041 7.68389 63.4456 13.3157 63.4456C18.9475 63.4456 23.513 65.3606 23.513 67.7228Z" fill="#C4C4C4"/>
<path d="M23.513 67.7228C23.1203 58.6875 22.4581 48.4753 22.1065 44.198C21.7549 39.9208 29.978 17.6936 23.513 8.55449C16.0082 8.07262 11.3419 7.83168 2.41516 8.55449C-4.04983 17.6936 4.55049 39.9208 4.19886 44.198C3.84723 48.4753 3.18506 58.6875 2.79233 67.7228L23.513 67.7228Z" fill="#C4C4C4"/>
</mask>
<g mask="url(#mask0)">
<rect x="-0.397949" y="12.8317" width="26.724" height="17.1089" fill="white" fill-opacity="0.3"/>
</g>
</svg>
