<svg width="446" height="302" viewBox="0 0 446 302" fill="none" xmlns="http://www.w3.org/2000/svg">
<path d="M109 248C191.494 230.571 240.07 227.182 336.5 248C250.757 319.12 200.981 320.101 109 248Z" fill="white"/>
<path d="M109 248C58.7654 174.501 65.8771 134.968 100.5 65.5C53.477 83.6153 32.2625 93.9302 0 112.5L65.5 265.5L109 248Z" fill="white"/>
<path d="M337 248.5C387.235 175.001 380.123 135.468 345.5 66C392.523 84.1153 413.738 94.4302 446 113L380.5 266L337 248.5Z" fill="white"/>
<path d="M167 84L89.5 103L94 118C131.205 100.811 125.892 113.809 107.5 146.5C140.711 131.076 134.808 149.679 103 214.5L138.5 204L138.985 203.046C167.084 147.697 182.989 116.367 148.5 122L167 84Z" fill="white"/>
<path d="M182 97.9992V198.499H239.5V182.999H209V157.499H239.5V141.499H209V115.999H245.5V97.9992H182Z" fill="white"/>
<path d="M267 102.499L255.5 200.499L283 202.999L290 163.499L313.5 167.499L306.5 208.499L333.5 214.499L356.5 119.499L326.5 112.999L317.5 149.499L293 144.999L298.5 105.999L267 102.499Z" fill="white"/>
<path d="M99 66.4992C198.727 39.1446 256.508 40.0013 347.5 66.4992C256.187 -20.8743 196.743 -22.1414 99 66.4992Z" fill="white"/>
</svg>
