<svg width="34" height="51" viewBox="0 0 34 51" fill="none" xmlns="http://www.w3.org/2000/svg">
<path d="M0 4.89041H17V47.5069H5.20408L0 4.89041Z" fill="#C4C4C4"/>
<path d="M0 4.89041H17V47.5069H5.20408L0 4.89041Z" fill="#C4C4C4"/>
<path d="M34 4.89041H17V47.5069H28.7959L34 4.89041Z" fill="#C4C4C4"/>
<path d="M34 4.89041H17V47.5069H28.7959L34 4.89041Z" fill="#C4C4C4"/>
<path d="M28.7959 47.5069C28.7959 49.4361 23.5147 51 17 51C10.4853 51 5.20408 49.4361 5.20408 47.5069C5.20408 45.5776 10.4853 44.0137 17 44.0137C23.5147 44.0137 28.7959 45.5776 28.7959 47.5069Z" fill="#C4C4C4"/>
<mask id="mask0" mask-type="alpha" maskUnits="userSpaceOnUse" x="0" y="4" width="34" height="47">
<path d="M0 4.89041H17V47.5069H5.20408L0 4.89041Z" fill="#C4C4C4"/>
<path d="M0 4.89041H17V47.5069H5.20408L0 4.89041Z" fill="#C4C4C4"/>
<path d="M34 4.89041H17V47.5069H28.7959L34 4.89041Z" fill="#C4C4C4"/>
<path d="M34 4.89041H17V47.5069H28.7959L34 4.89041Z" fill="#C4C4C4"/>
<path d="M28.7959 47.5069C28.7959 49.4361 23.5147 51 17 51C10.4853 51 5.20408 49.4361 5.20408 47.5069C5.20408 45.5776 10.4853 44.0137 17 44.0137C23.5147 44.0137 28.7959 45.5776 28.7959 47.5069Z" fill="#C4C4C4"/>
</mask>
<g mask="url(#mask0)">
<path d="M34 4.71575C34 7.32019 26.3888 9.43151 17 9.43151C7.61116 9.43151 0 7.32019 0 4.71575C0 2.11131 7.61116 0 17 0C26.3888 0 34 2.11131 34 4.71575Z" fill="#6889FB"/>
<path d="M28.7959 8.03425C28.7959 9.19178 27.6309 10.1301 26.1939 10.1301C24.7568 10.1301 23.5918 9.19178 23.5918 8.03425C23.5918 6.87672 24.7568 5.93836 26.1939 5.93836C27.6309 5.93836 28.7959 6.87672 28.7959 8.03425Z" fill="#6889FB"/>
<path d="M0 4.89041H34V9.08219C21.4263 12.504 13.9591 12.4189 0 9.08219V4.89041Z" fill="white" fill-opacity="0.3"/>
</g>
<path d="M34 4.71575C34 7.32019 26.3888 9.43151 17 9.43151C7.61116 9.43151 0 7.32019 0 4.71575C0 2.11131 7.61116 0 17 0C26.3888 0 34 2.11131 34 4.71575Z" fill="#6889FB"/>
<path d="M28.7959 8.03425C28.7959 9.19178 27.6309 10.1301 26.1939 10.1301C24.7568 10.1301 23.5918 9.19178 23.5918 8.03425C23.5918 6.87672 24.7568 5.93836 26.1939 5.93836C27.6309 5.93836 28.7959 6.87672 28.7959 8.03425Z" fill="#6889FB"/>
</svg>
